<svg viewBox="0 -16 512 512" xmlns="http://www.w3.org/2000/svg"><path d="m467 390h-32.433594v-30h32.433594c8.277344 0 15-6.722656 15-15s-6.722656-15-15-15h-30v-30h30c24.8125 0 45 20.1875 45 45s-20.1875 45-45 45zm0 0" fill="#53433f"/><path d="m301 135v35.097656h-90v-35.097656c0-24.902344 20.097656-45 45-45s45 20.097656 45 45zm0 0" fill="#68544f"/><path d="m301 170.097656h-45v-80.097656c24.902344 0 45 20.097656 45 45zm0 0" fill="#53433f"/><path d="m77.433594 390h-32.433594c-24.8125 0-45-20.1875-45-45s20.1875-45 45-45h30v30h-30c-8.277344 0-15 6.722656-15 15s6.722656 15 15 15h32.433594zm0 0" fill="#68544f"/><path d="m451 255v82.800781c0 46.199219-10.800781 92.699219-31.5 133.796875l-4.199219 8.402344h-319.601562l-4.199219-8.402344c-20.699219-41.097656-31.5-87.597656-31.5-133.796875v-82.800781zm0 0" fill="#ff3939"/><path d="m451 255v82.800781c0 46.199219-10.800781 92.699219-31.5 133.796875l-4.199219 8.402344h-159.300781v-225zm0 0" fill="#ff001e"/><path d="m451 255h-391c0-41.398438 33.601562-75 75-75h54.699219c10.5-9.601562 35.699219-30 66.300781-30s55.800781 20.398438 66.300781 30h53.699219c41.398438 0 75 33.601562 75 75zm0 0" fill="#ff3939"/><path d="m451 255h-195v-105c30.601562 0 55.800781 20.398438 66.300781 30h53.699219c41.398438 0 75 33.601562 75 75zm0 0" fill="#ff001e"/><g fill="#ffbd86"><path d="m361 90h-30c0-33.089844 26.910156-60 60-60h30c16.539062 0 30-13.460938 30-30h30c0 33.089844-26.910156 60-60 60h-30c-16.539062 0-30 13.460938-30 30zm0 0"/><path d="m391 150h-30c0-33.089844 26.910156-60 60-60h30c16.539062 0 31-13.460938 31-30h30c0 33.089844-27.910156 60-61 60h-30c-16.539062 0-30 13.460938-30 30zm0 0"/><path d="m361 90h-30c0-33.089844 26.910156-60 60-60h30c16.539062 0 30-13.460938 30-30h30c0 33.089844-26.910156 60-60 60h-30c-16.539062 0-30 13.460938-30 30zm0 0"/><path d="m391 150h-30c0-33.089844 26.910156-60 60-60h30c16.539062 0 31-13.460938 31-30h30c0 33.089844-27.910156 60-61 60h-30c-16.539062 0-30 13.460938-30 30zm0 0"/></g><path d="m30 240h451v30h-451zm0 0" fill="#68544f"/><path d="m256 240h225v30h-225zm0 0" fill="#53433f"/></svg>